<?xml version="1.0" encoding="UTF-8" standalone="no"?>
<!-- Created with Inkscape (http://www.inkscape.org/) -->

<svg
   width="210mm"
   height="297mm"
   viewBox="0 0 210 297"
   version="1.1"
   id="svg5"
   inkscape:version="1.1.1 (c3084ef, 2021-09-22)"
   sodipodi:docname="rectprism.svg"
   xmlns:inkscape="http://www.inkscape.org/namespaces/inkscape"
   xmlns:sodipodi="http://sodipodi.sourceforge.net/DTD/sodipodi-0.dtd"
   xmlns="http://www.w3.org/2000/svg"
   xmlns:svg="http://www.w3.org/2000/svg">
  <sodipodi:namedview
     id="namedview7"
     pagecolor="#ffffff"
     bordercolor="#666666"
     borderopacity="1.0"
     inkscape:pageshadow="2"
     inkscape:pageopacity="0.0"
     inkscape:pagecheckerboard="0"
     inkscape:document-units="mm"
     showgrid="false"
     inkscape:zoom="1.1323782"
     inkscape:cx="65.790739"
     inkscape:cy="684.84185"
     inkscape:window-width="1312"
     inkscape:window-height="667"
     inkscape:window-x="31"
     inkscape:window-y="86"
     inkscape:window-maximized="0"
     inkscape:current-layer="layer1" />
  <defs
     id="defs2">
    <inkscape:path-effect
       effect="skeletal"
       id="path-effect3146"
       is_visible="true"
       lpeversion="1"
       pattern="M 0,4.9921382 C 0,2.2364779 2.2364779,0 4.9921382,0 c 2.7556604,0 4.9921383,2.2364779 4.9921383,4.9921382 0,2.7556604 -2.2364779,4.9921383 -4.9921383,4.9921383 C 2.2364779,9.9842765 0,7.7477986 0,4.9921382 Z"
       copytype="single_stretched"
       prop_scale="1"
       scale_y_rel="false"
       spacing="0"
       normal_offset="0"
       tang_offset="0"
       prop_units="false"
       vertical_pattern="false"
       hide_knot="false"
       fuse_tolerance="0" />
    <linearGradient
       id="linearGradient2421"
       inkscape:swatch="solid">
      <stop
         style="stop-color:#000000;stop-opacity:1;"
         offset="0"
         id="stop2419" />
    </linearGradient>
    <inkscape:path-effect
       effect="skeletal"
       id="path-effect1067"
       is_visible="true"
       lpeversion="1"
       pattern="M 0,4.9921382 C 0,2.2364779 2.2364779,0 4.9921382,0 c 2.7556604,0 4.9921383,2.2364779 4.9921383,4.9921382 0,2.7556604 -2.2364779,4.9921383 -4.9921383,4.9921383 C 2.2364779,9.9842765 0,7.7477986 0,4.9921382 Z"
       copytype="single_stretched"
       prop_scale="1"
       scale_y_rel="false"
       spacing="0"
       normal_offset="0"
       tang_offset="0"
       prop_units="false"
       vertical_pattern="false"
       hide_knot="false"
       fuse_tolerance="0" />
  </defs>
  <g
     inkscape:label="Layer 1"
     inkscape:groupmode="layer"
     id="layer1">
    <rect
       style="opacity:0.94;fill:#4d4d4d;stroke:#7900f0;stroke-width:0.264583;stroke-miterlimit:4;stroke-dasharray:0.529167, 0.529167;stroke-dashoffset:0.15875;stroke-opacity:1"
       id="rect13817"
       width="44.394032"
       height="75.236198"
       x="38.085403"
       y="148.60316" />
    <path
       style="fill:none;stroke:#000000;stroke-width:0.264583px;stroke-linecap:butt;stroke-linejoin:miter;stroke-opacity:1"
       d="M 82.479429,148.60316 99.068783,136.21958"
       id="path13983" />
    <path
       style="fill:none;stroke:#000000;stroke-width:0.264583px;stroke-linecap:butt;stroke-linejoin:miter;stroke-opacity:1"
       d="m 99.068783,136.21958 v 74.06793 l -16.589352,13.55185"
       id="path13985" />
    <path
       style="fill:none;stroke:#000000;stroke-width:0.264583px;stroke-linecap:butt;stroke-linejoin:miter;stroke-opacity:1"
       d="m 38.085402,148.60316 17.757614,-14.25281 43.225767,1.86923"
       id="path13987" />
    <path
       style="fill:none;stroke:#000000;stroke-width:0.264583px;stroke-linecap:butt;stroke-linejoin:miter;stroke-opacity:1"
       d="m 99.068783,210.28751 -27.337377,0.23365"
       id="path14566" />
    <path
       style="fill:none;stroke:#000000;stroke-width:0.264583px;stroke-linecap:butt;stroke-linejoin:miter;stroke-opacity:1"
       d="m 55.843016,134.35035 2.336527,75.70351"
       id="path14568" />
    <path
       style="fill:none;stroke:#000000;stroke-width:0.264583px;stroke-linecap:butt;stroke-linejoin:miter;stroke-opacity:1"
       d="M 38.085402,223.83935 58.179543,210.05386"
       id="path14570" />
    <path
       style="fill:none;stroke:#000000;stroke-width:0.264583px;stroke-linecap:butt;stroke-linejoin:miter;stroke-opacity:1"
       d="m 58.179543,210.05386 13.551863,0.4673"
       id="path14572" />
    <path
       style="opacity:0.94;fill:#333333;stroke:#7900f0;stroke-width:0.883096;stroke-miterlimit:4;stroke-dasharray:1.76619, 1.76619;stroke-dashoffset:0.529858;stroke-opacity:1"
       d="m 213.36783,548.40334 c -0.27676,-6.79985 -0.74001,-18.42361 -1.02944,-25.83059 l -0.52623,-13.46723 5.14339,0.002 c 2.82886,10e-4 36.73619,1.39108 75.34961,3.08883 38.61343,1.69775 72.37921,3.08772 75.03507,3.08883 l 4.82886,0.002 -30.43675,22.69271 -30.43674,22.6927 -48.71228,0.0471 -48.71229,0.047 z"
       id="path15112"
       transform="scale(0.26458333)" />
    <path
       style="opacity:0.94;fill:#333333;stroke:#7900f0;stroke-width:0.883096;stroke-miterlimit:4;stroke-dasharray:1.76619, 1.76619;stroke-dashoffset:0.529858;stroke-opacity:1"
       d="m 148.37115,560.47599 c -0.4796,-0.15989 13.1312,-11.53895 30.24622,-25.28679 l 31.11821,-24.99609 0.54297,8.60695 c 0.29864,4.73383 0.69603,16.09198 0.8831,25.24035 l 0.34012,16.6334 -31.12932,0.0465 c -17.12113,0.0255 -31.52171,-0.0844 -32.0013,-0.24427 z"
       id="path15151"
       transform="scale(0.26458333)" />
    <path
       style="opacity:0.94;fill:#1a1a1a;stroke:#7900f0;stroke-width:0.883096;stroke-miterlimit:4;stroke-dasharray:1.76619, 1.76619;stroke-dashoffset:0.529858;stroke-opacity:1"
       d="m 312.48504,793.27508 c -0.81369,-2.67619 -0.13341,-230.38911 0.69075,-231.21326 0.47669,-0.4767 14.15658,-10.75933 30.39974,-22.85029 l 29.53302,-21.98356 0.22355,137.82029 c 0.12294,75.80115 -0.009,138.05333 -0.29333,138.33818 -0.28428,0.28486 -13.94738,0.63213 -30.36246,0.77174 -23.74442,0.20194 -29.91625,0.0214 -30.19127,-0.8831 z"
       id="path15658"
       transform="scale(0.26458333)" />
    <path
       style="opacity:0.94;fill:#1a1a1a;stroke:#7900f0;stroke-width:0.883096;stroke-miterlimit:4;stroke-dasharray:1.76619, 1.76619;stroke-dashoffset:0.529858;stroke-opacity:1"
       d="m 312.52671,842.39079 c -0.0493,-0.92526 -0.14867,-11.71641 -0.22077,-23.98034 l -0.13109,-22.29804 29.51016,-1.6e-4 c 16.23059,-8e-5 29.34458,0.1396 29.14221,0.3104 -0.20238,0.17081 -12.68716,10.35988 -27.74397,22.64238 -15.05681,12.2825 -28.07145,22.93397 -28.92143,23.66993 -1.39846,1.21087 -1.55395,1.17814 -1.63511,-0.34417 z"
       id="path15697"
       transform="scale(0.26458333)" />
    <path
       style="opacity:0.94;fill:#1a1a1a;stroke:#7900f0;stroke-width:0.883096;stroke-miterlimit:4;stroke-dasharray:1.76619, 1.76619;stroke-dashoffset:0.529858;stroke-opacity:1"
       d="m 148.5811,844.50607 c 0.12142,-0.33985 16.26357,-11.62268 35.87143,-25.07296 l 35.65066,-24.45504 21.75066,0.664 c 11.96286,0.3652 32.48029,0.60546 45.59428,0.53391 l 23.84362,-0.1301 v 24.31835 c 0,15.55604 -0.3182,24.35482 -0.8831,24.41955 -4.06441,0.46578 -161.99635,0.19475 -161.82755,-0.27771 z"
       id="path15736"
       transform="scale(0.26458333)" />
    <path
       style="opacity:0.94;fill:#1a1a1a;stroke:#7900f0;stroke-width:0.883096;stroke-miterlimit:4;stroke-dasharray:1.76619, 1.76619;stroke-dashoffset:0.529858;stroke-opacity:1"
       d="m 214.54665,557.40403 c -0.0253,-1.55045 -0.18496,-5.20337 -0.35485,-8.11759 -0.16988,-2.91422 -0.58262,-12.45167 -0.91719,-21.19433 -0.33457,-8.74267 -0.61934,-16.09445 -0.63283,-16.3373 -0.10195,-1.83582 0.54861,-2.28159 3.0547,-2.09312 1.57854,0.11871 9.42707,0.44857 17.44117,0.73302 8.01411,0.28444 17.94895,0.6946 22.07743,0.91145 4.12848,0.21685 12.47375,0.5978 18.54504,0.84657 14.02594,0.57468 31.61724,1.32811 42.38867,1.81548 22.77226,1.03037 39.95748,1.66796 46.14165,1.7119 3.7641,0.0267 6.8439,0.34668 6.844,0.71096 1e-4,0.36428 -0.30193,0.66232 -0.67117,0.66232 -0.36924,0 -1.66077,0.90202 -2.87007,2.00449 -1.20929,1.10247 -5.17917,4.14944 -8.82194,6.77104 -3.64278,2.62161 -6.7557,5.09743 -6.9176,5.50184 -0.1619,0.40441 -0.67542,0.73528 -1.14114,0.73528 -0.46573,0 -1.32675,0.40476 -1.91338,0.89947 -3.46824,2.92479 -5.4088,4.42239 -8.14378,6.28489 -1.68651,1.14849 -3.06908,2.38621 -3.0724,2.75049 -0.004,0.36427 -0.4202,0.66232 -0.92641,0.66232 -0.5062,0 -1.51348,0.49674 -2.23839,1.10387 -0.7249,0.60713 -1.80097,1.50941 -2.39124,2.00507 -0.59028,0.49566 -3.25889,2.47669 -5.93026,4.40228 -5.46872,3.942 -5.61449,4.05324 -9.27252,7.07615 -1.45711,1.20413 -3.04669,2.20416 -3.53239,2.22231 -0.4857,0.0181 -22.44171,0.19435 -48.79112,0.39157 l -47.90802,0.35858 z"
       id="path15814"
       transform="scale(0.26458333)" />
    <path
       style="opacity:0.94;fill:#1a1a1a;stroke:#7900f0;stroke-width:0.883096;stroke-miterlimit:4;stroke-dasharray:1.76619, 1.76619;stroke-dashoffset:0.529858;stroke-opacity:1"
       d="m 151.3966,559.35357 c -0.18024,-0.29152 1.14919,-1.7496 2.95427,-3.24018 4.77548,-3.94344 9.94116,-8.16107 14.31038,-11.68399 2.10833,-1.69996 4.26468,-3.49395 4.79189,-3.98663 0.5272,-0.49269 2.74682,-2.27525 4.93249,-3.96124 2.18566,-1.68599 4.40039,-3.46855 4.9216,-3.96124 0.52122,-0.49269 2.46763,-2.08798 4.32537,-3.54509 3.38154,-2.65231 9.06901,-7.24622 12.39184,-10.0092 0.97302,-0.80908 3.45673,-2.79598 5.51936,-4.41533 l 3.75023,-2.94427 0.046,2.50272 c 0.0253,1.3765 0.20951,5.08578 0.4094,8.24285 0.713,11.26118 0.77546,36.15363 0.0924,36.83658 -0.8023,0.80221 -57.95151,0.96357 -58.44522,0.16502 z"
       id="path15853"
       transform="scale(0.26458333)" />
    <path
       style="opacity:0.94;fill:#4d4d4d;stroke:#7900f0;stroke-width:0.883096;stroke-miterlimit:4;stroke-dasharray:1.76619, 1.76619;stroke-dashoffset:0.529858;stroke-opacity:1"
       d="m 313.25435,792.33155 c -0.40572,-1.0573 -0.33749,-81.01923 0.18125,-212.42542 l 0.0639,-16.18445 2.42852,-2.36059 c 1.33569,-1.29832 3.56539,-3.15537 4.95489,-4.12678 1.3895,-0.9714 2.97908,-2.17317 3.53239,-2.67058 0.55331,-0.49741 3.98647,-3.0463 7.62924,-5.6642 3.64278,-2.61789 6.82193,-5.00754 7.06478,-5.31033 0.24285,-0.30279 3.422,-2.68715 7.06478,-5.29859 3.64278,-2.61143 6.82193,-5.0049 7.06478,-5.31883 0.24285,-0.31393 3.2233,-2.50123 6.62323,-4.86067 3.39992,-2.35944 6.57907,-4.74967 7.06477,-5.31164 0.48571,-0.56196 1.97957,-1.73542 3.31971,-2.60768 l 2.4366,-1.58593 -0.0245,136.89872 c -0.0192,107.61902 -0.25705,136.97572 -1.11196,137.25871 -0.59813,0.198 -13.84572,0.47606 -29.43908,0.61792 -24.38523,0.22183 -28.42177,0.075 -28.85334,-1.04966 z"
       id="path16421"
       transform="scale(0.26458333)" />
    <path
       style="opacity:0.94;fill:#4d4d4d;stroke:#7900f0;stroke-width:0.883096;stroke-miterlimit:4;stroke-dasharray:1.76619, 1.76619;stroke-dashoffset:0.529858;stroke-opacity:1"
       d="m 154.542,843.79934 c -2.98608,-0.42658 -1.99837,-1.19784 29.14221,-22.7557 17.72818,-12.27279 33.1603,-22.98361 34.29361,-23.80182 1.39921,-1.01018 3.52498,-1.4323 6.62323,-1.3152 2.50947,0.0949 22.64408,0.36534 44.74359,0.60109 22.0995,0.23575 40.52188,0.43737 40.93861,0.44806 0.55576,0.0142 0.37002,30.87392 -0.27916,46.38202 -0.0379,0.90543 -149.24843,1.32922 -155.46209,0.44155 z"
       id="path16460"
       transform="scale(0.26458333)" />
    <path
       style="opacity:0.94;fill:#4d4d4d;stroke:#7900f0;stroke-width:0.883096;stroke-miterlimit:4;stroke-dasharray:1.76619, 1.76619;stroke-dashoffset:0.529858;stroke-opacity:1"
       d="m 313.27171,841.37083 c -0.18261,-0.36428 -0.30541,-10.56634 -0.27289,-22.67124 l 0.0591,-22.00891 16.55807,0.0761 c 9.10694,0.0419 21.62484,0.11087 27.81756,0.15333 l 11.25949,0.0772 -2.49783,2.1482 c -1.37381,1.18151 -4.12161,3.46603 -6.10623,5.07673 -1.98461,1.61069 -4.03974,3.33164 -4.56694,3.82433 -0.52721,0.49269 -2.74683,2.27524 -4.93249,3.96124 -2.18567,1.68599 -4.43049,3.46854 -4.9885,3.96123 -0.55801,0.49269 -2.51656,2.08798 -4.35234,3.54509 -1.83578,1.45711 -3.9754,3.24538 -4.75471,3.97394 -0.77931,0.72855 -2.99339,2.50242 -4.92018,3.94193 -1.92679,1.4395 -3.9346,3.02907 -4.46181,3.53238 -0.5272,0.50331 -2.68712,2.30599 -4.79982,4.00595 -2.1127,1.69996 -4.81918,3.98498 -6.0144,5.07781 -2.41458,2.20774 -2.55304,2.26834 -3.02611,1.32465 z"
       id="path16499"
       transform="scale(0.26458333)" />
    <path
       style="opacity:0.94;fill:#666666;stroke:#7900f0;stroke-width:0.883096;stroke-miterlimit:4;stroke-dasharray:1.76619, 1.76619;stroke-dashoffset:0.529858;stroke-opacity:1"
       d="m 155.97524,843.17202 c -0.64585,-0.64585 0.4033,-2.90507 1.34908,-2.90507 0.45494,0 1.89858,-0.99348 3.20811,-2.20774 1.30952,-1.21426 2.84864,-2.20774 3.42025,-2.20774 0.57162,0 1.17177,-0.32449 1.33367,-0.72108 0.1619,-0.39659 6.45397,-4.96187 13.98237,-10.14505 7.52841,-5.18319 14.0854,-9.73157 14.57111,-10.10752 4.13455,-3.20028 10.32544,-7.28546 11.04076,-7.28546 0.48458,0 0.88176,-0.29805 0.88263,-0.66232 8.7e-4,-0.36428 1.88849,-1.84282 4.19471,-3.28563 2.30622,-1.44282 4.75154,-3.16503 5.43404,-3.82713 3.36155,-3.26105 3.69673,-3.27239 70.73151,-2.39331 l 23.40208,0.3069 0.004,22.23301 c 0.002,12.22816 -0.35054,22.45212 -0.78383,22.7199 -0.97149,0.60069 -152.17434,1.08392 -152.77002,0.48824 z"
       id="path16538"
       transform="scale(0.26458333)" />
    <path
       style="opacity:0.94;fill:#666666;stroke:#7900f0;stroke-width:0.883096;stroke-miterlimit:4;stroke-dasharray:1.76619, 1.76619;stroke-dashoffset:0.529858;stroke-opacity:1"
       d="m 314.08253,839.60463 c -0.22237,-0.36428 -0.46375,-9.90173 -0.5364,-21.19433 -0.12351,-19.19842 -0.0289,-20.53712 1.45606,-20.61062 8.21599,-0.40665 49.883,-0.0497 50.36416,0.43147 0.34445,0.34445 0.19108,0.90271 -0.34082,1.24058 -1.13347,0.71999 -8.10963,6.38044 -9.50346,7.71109 -0.52721,0.50331 -2.54813,2.07783 -4.49095,3.49893 -1.94281,1.42111 -4.18302,3.19497 -4.97825,3.94193 -0.79522,0.74696 -2.95247,2.55028 -4.79388,4.00739 -1.84142,1.45711 -4.07188,3.34473 -4.9566,4.19472 -0.88471,0.84998 -1.83565,1.54542 -2.11319,1.54542 -0.27755,0 -1.00694,0.49674 -1.62088,1.10387 -0.61393,0.60713 -2.8369,2.49475 -4.93992,4.19471 -5.40634,4.37017 -8.83339,7.26191 -10.72737,9.05174 -1.81966,1.71961 -2.22949,1.84802 -2.8185,0.8831 z"
       id="path16614"
       transform="scale(0.26458333)" />
    <path
       style="opacity:0.94;fill:#4d4d4d;stroke:#7900f0;stroke-width:0.883096;stroke-miterlimit:4;stroke-dasharray:1.76619, 1.76619;stroke-dashoffset:0.529858;stroke-opacity:1"
       d="m 144.38639,703.39666 c 0,-77.23222 0.19869,-140.46801 0.44155,-140.52397 0.24285,-0.056 15.29506,-0.15531 33.44935,-0.22078 21.31805,-0.0769 33.11749,0.19374 33.3175,0.76408 0.17033,0.48571 1.69703,46.78208 3.39267,102.88082 1.69563,56.09875 3.33248,107.605 3.63744,114.45835 l 0.55446,12.46062 -36.24086,24.85809 c -19.93248,13.67195 -36.7609,25.05764 -37.39649,25.30154 -0.94911,0.36421 -1.15562,-24.64994 -1.15562,-139.97875 z"
       id="path16727"
       transform="scale(0.26458333)" />
    <path
       style="opacity:0.94;fill:#4d4d4d;stroke:#7900f0;stroke-width:0.883096;stroke-miterlimit:4;stroke-dasharray:1.76619, 1.76619;stroke-dashoffset:0.529858;stroke-opacity:1"
       d="m 234.24152,793.68536 c -9.88326,-0.19709 -13.46825,-0.55621 -13.47107,-1.34943 -0.002,-0.59448 -1.58918,-51.94726 -3.52682,-114.11731 -1.93765,-62.17004 -3.52549,-113.63252 -3.52855,-114.36108 -0.005,-1.16121 5.95965,-1.32654 48.344,-1.33998 26.59227,-0.008 48.54827,0.25164 48.79112,0.57795 0.33673,0.45246 0.40791,227.51304 0.0723,230.58807 -0.0672,0.61558 -45.84767,0.61664 -76.68097,0.002 z"
       id="path16803"
       transform="scale(0.26458333)" />
  </g>
</svg>
